<svg width="645" height="50" viewBox="0 0 645 50" fill="none" xmlns="http://www.w3.org/2000/svg">
<rect width="645" height="50" rx="4" fill="#F9E001"/>
<path d="M235 15C236.989 15 238.828 15.3867 240.518 16.1602C242.209 16.9336 243.545 17.9853 244.527 19.3153C245.509 20.6453 246 22.096 246 23.6675C246 25.2389 245.509 26.6917 244.527 28.0257C243.545 29.3598 242.211 30.4136 240.525 31.187C238.839 31.9605 236.997 32.3472 235 32.3472C234.37 32.3472 233.719 32.3022 233.048 32.2122C230.134 34.2337 228.583 35.2568 228.395 35.2814C228.305 35.3141 228.219 35.31 228.137 35.2691C228.105 35.2445 228.08 35.2118 228.064 35.1709C228.047 35.13 228.039 35.0931 228.039 35.0604V35.0113C228.088 34.6921 228.461 33.3621 229.156 31.0213C227.577 30.2356 226.322 29.1941 225.393 27.8968C224.464 26.5996 224 25.1898 224 23.6675C224 22.096 224.491 20.6453 225.473 19.3153C226.455 17.9853 227.791 16.9336 229.482 16.1602C231.172 15.3867 233.011 15 235 15ZM229.426 25.9632V22.1942H230.396C230.527 22.1942 230.664 22.1472 230.807 22.0531C230.951 21.9589 231.022 21.83 231.022 21.6663C231.022 21.5026 230.957 21.3656 230.826 21.2551C230.695 21.1446 230.568 21.0893 230.445 21.0893H227.253C227.114 21.0893 226.983 21.1302 226.86 21.2121C226.738 21.2939 226.676 21.429 226.676 21.6172C226.676 21.8055 226.742 21.9487 226.873 22.0469C227.004 22.1451 227.151 22.1942 227.315 22.1942H228.285V25.9632C228.285 26.1678 228.334 26.3356 228.432 26.4666C228.53 26.5975 228.669 26.663 228.849 26.663C229.029 26.663 229.171 26.5894 229.273 26.442C229.375 26.2947 229.426 26.1351 229.426 25.9632ZM234.742 26.663C235.045 26.5484 235.139 26.2579 235.025 25.7914C234.992 25.685 234.761 25.0486 234.331 23.8823C233.901 22.716 233.654 22.051 233.588 21.8873C233.367 21.3553 233.064 21.0893 232.68 21.0893C232.262 21.0893 231.939 21.3553 231.71 21.8873C231.644 22.0265 231.395 22.7037 230.961 23.9191C230.527 25.1345 230.302 25.7586 230.286 25.7914C230.228 25.865 230.214 26.0001 230.243 26.1965C230.271 26.3929 230.359 26.528 230.507 26.6016C230.67 26.6753 230.83 26.6835 230.985 26.6262C231.141 26.5689 231.247 26.483 231.305 26.3684L231.599 25.5581H233.735C233.826 25.8527 233.891 26.0451 233.932 26.1351C233.973 26.217 234.018 26.2988 234.067 26.3806C234.116 26.4625 234.206 26.5423 234.337 26.62C234.468 26.6978 234.603 26.7121 234.742 26.663ZM238.045 26.663C238.217 26.663 238.374 26.6098 238.517 26.5034C238.661 26.397 238.732 26.2538 238.732 26.0737C238.732 25.8937 238.667 25.7525 238.536 25.6502C238.405 25.5479 238.241 25.4967 238.045 25.4967H236.682V21.7891C236.682 21.6172 236.631 21.4576 236.528 21.3103C236.426 21.163 236.285 21.0893 236.105 21.0893C235.925 21.0893 235.786 21.1548 235.687 21.2858C235.589 21.4167 235.54 21.5845 235.54 21.7891V25.9632C235.54 26.1678 235.589 26.3356 235.687 26.4666C235.786 26.5975 235.925 26.663 236.105 26.663C236.113 26.663 236.127 26.661 236.148 26.6569C236.168 26.6528 236.183 26.6507 236.191 26.6507C236.199 26.6507 236.213 26.6528 236.234 26.6569C236.254 26.661 236.269 26.663 236.277 26.663H238.045ZM242.882 26.5771C243.021 26.4461 243.09 26.2968 243.09 26.129C243.09 25.9612 243.037 25.8118 242.931 25.6809C242.882 25.6072 242.366 24.9156 241.384 23.6061C241.859 23.1232 242.337 22.6403 242.82 22.1574C242.943 22.0346 243.019 21.8894 243.047 21.7216C243.076 21.5538 243.029 21.3962 242.906 21.2489C242.767 21.118 242.618 21.0648 242.458 21.0893C242.299 21.1139 242.149 21.1957 242.01 21.3349C241.985 21.3594 241.879 21.4679 241.691 21.6602C241.503 21.8525 241.259 22.1001 240.96 22.4029C240.662 22.7058 240.398 22.9759 240.169 23.2132V21.7891C240.169 21.6172 240.117 21.4576 240.015 21.3103C239.913 21.163 239.772 21.0893 239.592 21.0893C239.411 21.0893 239.272 21.1548 239.174 21.2858C239.076 21.4167 239.027 21.5845 239.027 21.7891V25.9632C239.027 26.1678 239.076 26.3356 239.174 26.4666C239.272 26.5975 239.411 26.663 239.592 26.663C239.772 26.663 239.913 26.5894 240.015 26.442C240.117 26.2947 240.169 26.1351 240.169 25.9632V24.846C240.201 24.8133 240.263 24.7499 240.353 24.6557C240.443 24.5616 240.516 24.4859 240.574 24.4286C241.114 25.1652 241.597 25.8159 242.022 26.3806C242.137 26.5362 242.27 26.6364 242.421 26.6814C242.573 26.7264 242.726 26.6917 242.882 26.5771ZM231.931 24.4532L232.68 22.2556L233.416 24.4532H231.931Z" fill="black"/>
<path d="M277.988 16.625C277.965 22.8125 276.066 28.3203 268.402 32.0938L267.183 30.4297C270.98 28.5664 273.242 26.3047 274.496 23.6328L267.629 24.2891L267.3 22.3672L275.175 21.8281C275.492 20.7617 275.679 19.625 275.761 18.4297H268.402V16.625H277.988ZM283.425 14.4922V22.8828H286.683V24.7109H283.425V35.4688H281.199V14.4922H283.425ZM299.21 16.625C299.187 22.8125 297.288 28.3203 289.624 32.0938L288.405 30.4297C292.202 28.5664 294.464 26.3047 295.718 23.6328L288.851 24.2891L288.523 22.3672L296.398 21.8281C296.714 20.7617 296.902 19.625 296.984 18.4297H289.624V16.625H299.21ZM304.648 14.4922V22.8828H307.905V24.7109H304.648V35.4688H302.421V14.4922H304.648ZM319.073 15.7578C323.573 15.7812 326.831 17.9844 326.831 21.3359C326.831 24.4883 324.1 26.5625 320.175 26.8906V31.0156H328.729V32.8672H309.51V31.0156H317.971V26.8906C314.069 26.5625 311.339 24.4883 311.339 21.3359C311.339 17.9844 314.596 15.7812 319.073 15.7578ZM319.073 17.5859C315.839 17.5625 313.495 19.0625 313.495 21.3359C313.495 23.7031 315.839 25.1562 319.073 25.1797C322.331 25.1562 324.675 23.7031 324.675 21.3359C324.675 19.0625 322.331 17.5625 319.073 17.5859ZM349.951 31.1094V32.9844H330.733V31.1094H339.194V27.4297H333.076V20.75H345.405V17.7969H333.03V15.9688H347.608V22.5312H335.28V25.6016H348.1V27.4297H341.397V31.1094H349.951ZM377.513 31.1094V32.9844H358.294V31.1094H366.755V27.4297H360.638V20.75H372.966V17.7969H360.591V15.9688H375.169V22.5312H362.841V25.6016H375.661V27.4297H368.958V31.1094H377.513ZM396.157 16.625V18.875C396.157 21.5938 396.157 24.5469 395.384 29.0234L393.11 28.8125C393.954 24.6172 393.954 21.5234 393.954 18.875V18.4531H381.579V16.625H396.157ZM398.665 30.6641V32.5156H379.516V30.6641H398.665ZM418.153 14.5156V29.7734H415.926V14.5156H418.153ZM418.785 33.2422V35.0469H404.418V28.2266H406.668V33.2422H418.785ZM406.762 15.9219C409.926 15.9219 412.34 18.0781 412.34 21.125C412.34 24.2188 409.926 26.3516 406.762 26.3516C403.598 26.3516 401.16 24.2188 401.16 21.125C401.16 18.0781 403.598 15.9219 406.762 15.9219ZM406.762 17.8672C404.793 17.8672 403.34 19.2031 403.34 21.125C403.34 23.0938 404.793 24.4062 406.762 24.4062C408.684 24.4062 410.16 23.0938 410.16 21.125C410.16 19.2031 408.684 17.8672 406.762 17.8672Z" fill="#1A1E27"/>
</svg>
