<svg width="645" height="50" viewBox="0 0 645 50" fill="none" xmlns="http://www.w3.org/2000/svg">
<rect width="645" height="50" rx="4" fill="#A2A2A2"/>
<path d="M242.235 14.4922V35.5391H240.008V14.4922H242.235ZM228.242 16.25V21.6406H233.891V16.25H236.094V30.5H226.016V16.25H228.242ZM228.242 28.6719H233.891V23.3984H228.242V28.6719ZM263.433 14.4922V35.4922H261.207V14.4922H263.433ZM246.183 29.7734C247.906 29.7617 249.886 29.75 251.949 29.6797V27.5938C249.488 27.2773 247.894 25.8359 247.918 23.7734C247.894 21.4062 249.957 19.8359 253.004 19.8359C256.074 19.8359 258.183 21.4062 258.183 23.7734C258.183 25.8125 256.59 27.2422 254.152 27.5703V29.6094C256.097 29.5273 258.066 29.375 259.918 29.1406L260.082 30.8047C255.418 31.5781 250.332 31.625 246.488 31.625L246.183 29.7734ZM259.449 17V18.7812H246.629V17H251.949V14.5391H254.175V17H259.449ZM253.004 21.5703C251.246 21.5703 250.004 22.4375 250.027 23.7734C250.004 25.1094 251.246 25.9297 253.004 25.9297C254.808 25.9297 256.05 25.1094 256.05 23.7734C256.05 22.4375 254.808 21.5703 253.004 21.5703ZM284.749 14.5156V30.4297H282.523V28.4141H278.304V26.8438H282.523V14.5156H284.749ZM285.265 33.2422V35.0469H270.101V28.8828H272.304V33.2422H285.265ZM267.195 24.1016C271.085 24.0781 276.312 24.0312 280.788 23.4688L280.929 25.0625C279.136 25.3555 277.249 25.5547 275.398 25.6719V29.7734H273.171V25.7891C271.132 25.8828 269.175 25.8945 267.476 25.8828L267.195 24.1016ZM274.062 15.3125C277.132 15.3125 279.265 16.7891 279.265 19.0156C279.265 21.2422 277.132 22.6719 274.062 22.6719C270.945 22.6719 268.835 21.2422 268.835 19.0156C268.835 16.7891 270.945 15.3125 274.062 15.3125ZM274.062 16.9766C272.187 16.9531 270.921 17.75 270.945 19.0156C270.921 20.2578 272.187 21.0312 274.062 21.0312C275.866 21.0312 277.132 20.2578 277.155 19.0156C277.132 17.75 275.866 16.9531 274.062 16.9766ZM298.073 15.7578C302.479 15.7578 305.831 18.0781 305.831 21.6172C305.831 25.1562 302.479 27.5 298.073 27.4766C293.667 27.5 290.339 25.1562 290.339 21.6172C290.339 18.0781 293.667 15.7578 298.073 15.7578ZM298.073 17.5625C294.862 17.5391 292.448 19.1797 292.471 21.6172C292.448 24.0781 294.862 25.6484 298.073 25.6484C301.284 25.6484 303.675 24.0781 303.675 21.6172C303.675 19.1797 301.284 17.5391 298.073 17.5625ZM307.729 30.9219V32.7734H288.51V30.9219H307.729ZM328.951 31.1094V32.9844H309.733V31.1094H318.194V27.4297H312.076V20.75H324.405V17.7969H312.03V15.9688H326.608V22.5312H314.28V25.6016H327.1V27.4297H320.397V31.1094H328.951ZM354.685 14.4922V35.5391H352.458V14.4922H354.685ZM343.458 16.0625C346.575 16.0625 348.872 18.9219 348.872 23.4219C348.872 27.9453 346.575 30.8047 343.458 30.8047C340.294 30.8047 338.021 27.9453 338.021 23.4219C338.021 18.9219 340.294 16.0625 343.458 16.0625ZM343.458 18.0547C341.513 18.0547 340.177 20.1172 340.177 23.4219C340.177 26.75 341.513 28.8125 343.458 28.8125C345.38 28.8125 346.716 26.75 346.716 23.4219C346.716 20.1172 345.38 18.0547 343.458 18.0547ZM377.665 24.7344V26.5391H358.516V24.7344H363.11V21.8984C361.493 21.2422 360.579 20.1875 360.579 18.8047C360.579 16.3203 363.462 14.8672 368.079 14.8672C372.673 14.8672 375.579 16.3203 375.579 18.8047C375.579 20.1875 374.653 21.2539 373.024 21.8984V24.7344H377.665ZM368.079 27.9688C372.602 27.9688 375.321 29.3047 375.321 31.6953C375.321 34.1328 372.602 35.4453 368.079 35.4453C363.509 35.4453 360.79 34.1328 360.79 31.6953C360.79 29.3047 363.509 27.9688 368.079 27.9688ZM368.079 29.6797C364.868 29.6797 363.04 30.4062 363.04 31.6953C363.04 33.0078 364.868 33.7578 368.079 33.7344C371.243 33.7578 373.095 33.0078 373.095 31.6953C373.095 30.4062 371.243 29.6797 368.079 29.6797ZM368.079 16.5781C364.821 16.5781 362.852 17.3984 362.876 18.8047C362.852 20.2109 364.821 21.0078 368.079 21.0078C371.337 21.0078 373.282 20.2109 373.282 18.8047C373.282 17.3984 371.337 16.5781 368.079 16.5781ZM365.36 24.7344H370.821V22.4844C370.001 22.625 369.075 22.6953 368.079 22.6953C367.095 22.6953 366.18 22.625 365.36 22.5078V24.7344ZM396.098 14.4922V23H399.473V24.8516H396.098V35.4922H393.895V14.4922H396.098ZM392.067 17.7734V19.6016H379.621V17.7734H384.801V14.7734H387.028V17.7734H392.067ZM385.926 21.1484C388.926 21.1484 391.129 23.1641 391.153 26.0234C391.129 28.9062 388.926 30.8984 385.926 30.9219C382.903 30.8984 380.7 28.9062 380.7 26.0234C380.7 23.1641 382.903 21.1484 385.926 21.1484ZM385.926 22.9766C384.145 22.9766 382.809 24.2188 382.832 26.0234C382.809 27.8516 384.145 29.0703 385.926 29.0469C387.707 29.0703 389.02 27.8516 389.02 26.0234C389.02 24.2188 387.707 22.9766 385.926 22.9766ZM418.422 14.4922V35.4922H416.172V14.4922H418.422ZM412.164 16.7422C412.164 22.8828 409.539 28.2266 402.344 31.6719L401.172 29.8672C406.762 27.207 409.48 23.4219 409.914 18.5234H402.18V16.7422H412.164Z" fill="#1A1E27"/>
</svg>
