<svg width="148" height="36" viewBox="0 0 148 36" fill="none" xmlns="http://www.w3.org/2000/svg">
<path d="M27.1228 0.979998V26H23.0188V8.864L15.3868 26H12.5428L4.87478 8.864V26H0.770778V0.979998H5.19878L13.9828 20.6L22.7308 0.979998H27.1228ZM49.6529 6.164L37.4849 35.324H33.2369L37.2689 25.676L29.4569 6.164H34.0289L39.6089 21.284L45.4049 6.164H49.6529ZM68.9056 26.252C67.2256 26.252 65.7136 25.964 64.3696 25.388C63.0256 24.788 61.9696 23.948 61.2016 22.868C60.4336 21.788 60.0496 20.528 60.0496 19.088H64.4416C64.5376 20.168 64.9576 21.056 65.7016 21.752C66.4696 22.448 67.5376 22.796 68.9056 22.796C70.3216 22.796 71.4256 22.46 72.2176 21.788C73.0096 21.092 73.4056 20.204 73.4056 19.124C73.4056 18.284 73.1536 17.6 72.6496 17.072C72.1696 16.544 71.5576 16.136 70.8136 15.848C70.0936 15.56 69.0856 15.248 67.7896 14.912C66.1576 14.48 64.8256 14.048 63.7936 13.616C62.7856 13.16 61.9216 12.464 61.2016 11.528C60.4816 10.592 60.1216 9.344 60.1216 7.784C60.1216 6.344 60.4816 5.084 61.2016 4.004C61.9216 2.924 62.9296 2.096 64.2256 1.52C65.5216 0.943999 67.0216 0.655998 68.7256 0.655998C71.1496 0.655998 73.1296 1.268 74.6656 2.492C76.2256 3.692 77.0896 5.348 77.2576 7.46H72.7216C72.6496 6.548 72.2176 5.768 71.4256 5.12C70.6336 4.472 69.5896 4.148 68.2936 4.148C67.1176 4.148 66.1576 4.448 65.4136 5.048C64.6696 5.648 64.2976 6.512 64.2976 7.64C64.2976 8.408 64.5256 9.044 64.9816 9.548C65.4616 10.028 66.0616 10.412 66.7816 10.7C67.5016 10.988 68.4856 11.3 69.7336 11.636C71.3896 12.092 72.7336 12.548 73.7656 13.004C74.8216 13.46 75.7096 14.168 76.4296 15.128C77.1736 16.064 77.5456 17.324 77.5456 18.908C77.5456 20.18 77.1976 21.38 76.5016 22.508C75.8296 23.636 74.8336 24.548 73.5136 25.244C72.2176 25.916 70.6816 26.252 68.9056 26.252ZM86.4561 9.512V20.492C86.4561 21.236 86.6241 21.776 86.9601 22.112C87.3201 22.424 87.9201 22.58 88.7601 22.58H91.2801V26H88.0401C86.1921 26 84.7761 25.568 83.7921 24.704C82.8081 23.84 82.3161 22.436 82.3161 20.492V9.512H79.9761V6.164H82.3161V1.232H86.4561V6.164H91.2801V9.512H86.4561ZM102.947 26.324C101.075 26.324 99.3827 25.904 97.8707 25.064C96.3587 24.2 95.1707 23 94.3067 21.464C93.4427 19.904 93.0107 18.104 93.0107 16.064C93.0107 14.048 93.4547 12.26 94.3427 10.7C95.2307 9.14 96.4427 7.94 97.9787 7.1C99.5147 6.26 101.231 5.84 103.127 5.84C105.023 5.84 106.739 6.26 108.275 7.1C109.811 7.94 111.023 9.14 111.911 10.7C112.799 12.26 113.243 14.048 113.243 16.064C113.243 18.08 112.787 19.868 111.875 21.428C110.963 22.988 109.715 24.2 108.131 25.064C106.571 25.904 104.843 26.324 102.947 26.324ZM102.947 22.76C104.003 22.76 104.987 22.508 105.899 22.004C106.835 21.5 107.591 20.744 108.167 19.736C108.743 18.728 109.031 17.504 109.031 16.064C109.031 14.624 108.755 13.412 108.203 12.428C107.651 11.42 106.919 10.664 106.007 10.16C105.095 9.656 104.111 9.404 103.055 9.404C101.999 9.404 101.015 9.656 100.103 10.16C99.2147 10.664 98.5067 11.42 97.9787 12.428C97.4507 13.412 97.1867 14.624 97.1867 16.064C97.1867 18.2 97.7267 19.856 98.8067 21.032C99.9107 22.184 101.291 22.76 102.947 22.76ZM120.684 9.044C121.284 8.036 122.076 7.256 123.06 6.704C124.068 6.128 125.256 5.84 126.624 5.84V10.088H125.58C123.972 10.088 122.748 10.496 121.908 11.312C121.092 12.128 120.684 13.544 120.684 15.56V26H116.58V6.164H120.684V9.044ZM147.532 6.164L135.364 35.324H131.116L135.148 25.676L127.336 6.164H131.908L137.488 21.284L143.284 6.164H147.532Z" fill="white"/>
</svg>
